<?xml version="1.0" encoding="utf-8"?>
<!-- Generator: Adobe Illustrator 22.0.1, SVG Export Plug-In . SVG Version: 6.00 Build 0)  -->
<svg version="1.1" id="Layer_1" xmlns="http://www.w3.org/2000/svg" xmlns:xlink="http://www.w3.org/1999/xlink" x="0px" y="0px"
	 viewBox="0 0 141.7 141.7" style="enable-background:new 0 0 141.7 141.7;" xml:space="preserve">
<style type="text/css">
	.st0{fill:#FFFFFF;}
</style>
<g>
	<g>
		<path class="st0" d="M13.8,92.5H8.2V56.9h5.6v15.3h6.4V56.9h5.7v35.7h-5.7V77.3h-6.4C13.8,77.3,13.8,92.5,13.8,92.5z"/>
		<path class="st0" d="M48,92.5h-5.7l-1-6.5h-6.9l-1,6.5h-5.1L34,56.8h8.2L48,92.5z M35.3,81.2h5.4l-2.7-18L35.3,81.2z"/>
		<path class="st0" d="M55.6,66.7v25.8h-5V56.9h7l5.8,21.3V56.9h5v35.7h-5.8L55.6,66.7z"/>
		<path class="st0" d="M78.4,66.7v25.8h-5V56.9h7l5.8,21.3V56.9h5v35.7h-5.8L78.4,66.7z"/>
		<path class="st0" d="M113.3,92.5h-5.7l-1-6.5h-6.9l-1,6.5h-5.1l5.7-35.7h8.2L113.3,92.5z M100.5,81.2h5.4l-2.7-18L100.5,81.2z"/>
		<path class="st0" d="M121.5,92.5h-5.6V56.9h5.6v15.3h6.4V56.9h5.7v35.7h-5.7V77.3h-6.4C121.5,77.3,121.5,92.5,121.5,92.5z"/>
	</g>
	<g>
		<path class="st0" d="M16.2,95.3c2.9,0,5,0.7,6.2,2c1.3,1.3,1.9,3.4,1.9,6.1v1.3c0,1.8-0.3,3.3-0.9,4.5s-1.5,2-2.7,2.6
			c1.5,0.6,2.6,1.5,3.2,2.8s0.9,2.9,0.9,4.7v2.9c0,2.7-0.7,4.8-2.1,6.2c-1.4,1.4-3.5,2.1-6.3,2.1H7.9V95.3H16.2z M13.4,100.3v9.3
			h2.2c1,0,1.8-0.3,2.4-0.8s0.9-1.5,0.9-2.9v-2c0-1.3-0.2-2.2-0.7-2.8c-0.5-0.6-1.2-0.9-2.1-0.9h-2.7V100.3z M13.4,114.6v10.8h3.2
			c0.9,0,1.6-0.3,2.1-0.8s0.7-1.4,0.7-2.7v-3.1c0-1.6-0.3-2.8-0.8-3.4c-0.6-0.6-1.5-0.9-2.7-0.9L13.4,114.6L13.4,114.6z"/>
		<path class="st0" d="M46.1,130.4h-5.6l-1-6.4h-6.8l-1,6.4h-5.1l5.6-35.1h8.1L46.1,130.4z M33.5,119.3h5.3l-2.7-17.8L33.5,119.3z"
			/>
		<path class="st0" d="M60.2,130.4c-0.1-0.2-0.1-0.5-0.2-0.7c-0.1-0.2-0.1-0.5-0.2-0.8c-0.1-0.3-0.1-0.7-0.1-1.2s0-1.1,0-1.8v-5.5
			c0-1.6-0.3-2.8-0.9-3.5c-0.6-0.7-1.5-1-2.8-1h-1.9v14.3h-5.5V95.3H57c2.9,0,5,0.7,6.2,2c1.3,1.3,1.9,3.4,1.9,6.1v2.8
			c0,3.6-1.2,6-3.6,7.1c1.4,0.6,2.4,1.5,2.9,2.8s0.8,2.9,0.8,4.7v5.4c0,0.9,0,1.6,0.1,2.3s0.2,1.3,0.5,2h-5.6V130.4z M54.2,100.3
			v10.8h2.2c1,0,1.8-0.3,2.4-0.8c0.6-0.5,0.9-1.5,0.9-2.9V104c0-1.3-0.2-2.2-0.7-2.8c-0.5-0.6-1.2-0.9-2.1-0.9
			C56.9,100.3,54.2,100.3,54.2,100.3z"/>
		<path class="st0" d="M80.4,130.4c-0.1-0.2-0.1-0.5-0.2-0.7s-0.1-0.5-0.2-0.8s-0.1-0.7-0.1-1.2s0-1.1,0-1.8v-5.5
			c0-1.6-0.3-2.8-0.9-3.5s-1.5-1-2.8-1h-1.9v14.3h-5.5V95.3h8.3c2.9,0,5,0.7,6.2,2c1.3,1.3,1.9,3.4,1.9,6.1v2.8c0,3.6-1.2,6-3.6,7.1
			c1.4,0.6,2.4,1.5,2.9,2.8s0.8,2.9,0.8,4.7v5.4c0,0.9,0,1.6,0.1,2.3s0.2,1.3,0.5,2h-5.5V130.4z M74.4,100.3v10.8h2.2
			c1,0,1.8-0.3,2.4-0.8s0.9-1.5,0.9-2.9V104c0-1.3-0.2-2.2-0.7-2.8c-0.5-0.6-1.2-0.9-2.1-0.9C77.1,100.3,74.4,100.3,74.4,100.3z"/>
		<path class="st0" d="M88.6,103.8c0-2.8,0.7-5,2.2-6.5c1.4-1.5,3.5-2.3,6.2-2.3s4.8,0.8,6.2,2.3c1.4,1.5,2.2,3.7,2.2,6.5V122
			c0,2.8-0.7,5-2.2,6.5c-1.4,1.5-3.5,2.3-6.2,2.3s-4.8-0.8-6.2-2.3c-1.4-1.5-2.2-3.7-2.2-6.5V103.8z M94.1,122.4
			c0,1.3,0.3,2.2,0.8,2.7s1.2,0.8,2.1,0.8s1.6-0.3,2.1-0.8s0.8-1.4,0.8-2.7v-19c0-1.3-0.3-2.2-0.8-2.7s-1.2-0.8-2.1-0.8
			s-1.6,0.3-2.1,0.8s-0.8,1.4-0.8,2.7V122.4z"/>
		<path class="st0" d="M121.1,111.7l-2,18.7h-7.6l-3.9-35.1h5.4l3,27.7l2.7-27.7h5.3l2.8,27.9l2.9-27.9h4.8l-3.9,35.1h-7.3
			L121.1,111.7z"/>
	</g>
</g>
</svg>
